# xmcd
#
# Track frame offsets: 
#        150
#        3658
#        37705
#        119572
#        160495
#
# Disc length: 2156 seconds
#
# Revision: 0
# Processed by: cddbd v1.5.2PL0 Copyright (c) Steve Scherf et al.
# Submitted via: ExactAudioCopy v1.3
#
DISCID=37086a05
DTITLE=B.B. King with Eric Clapton, Robert Cray and Jimmie Vaughan - Cro
DTITLE=ssroads Guitar Festival 2010
DYEAR=2010
DGENRE=Blues
TTITLE0=Introduction
TTITLE1=Key To The Highway
TTITLE2=The Thrill is Gone
TTITLE3=Sweet Home Chicago (All-Star Finale)
TTITLE4=Outro
EXTD=
EXTT0=
EXTT1=
EXTT2=
EXTT3=
EXTT4=
PLAYORDER=
